<svg width="120" height="30" viewBox="0 0 120 30" fill="none" xmlns="http://www.w3.org/2000/svg">
  <!-- Brand Icon: 3 layered square boxes representing layers/components like in the original icon -->
  <path d="M4 6C4 5.44772 4.44772 5 5 5H15C15.5523 5 16 5.44772 16 6V16C16 16.5523 15.5523 17 15 17H5C4.44772 17 4 16.5523 4 16V6Z" fill="#5E5E5E" />
  <path d="M7 10C7 9.44772 7.44772 9 8 9H18C18.5523 9 19 9.44772 19 10V20C19 20.5523 18.5523 21 18 21H8C7.44772 21 7 20.5523 7 20V10Z" fill="#82858B" />
  <path d="M10 14C10 13.4477 10.4477 13 11 13H21C21.5523 13 22 13.4477 22 14V24C22 24.5523 21.5523 25 21 25H11C10.4477 25 10 24.5523 10 24V14Z" fill="#DBDBDB" />
  
  <!-- Brand Text: "cv2web" in JetBrains Mono or Inter styling -->
  <text x="32" y="21" fill="#1F1F1F" font-family="JetBrains Mono, monospace, sans-serif" font-weight="800" font-size="16" letter-spacing="-0.5px">cv2web</text>
</svg>
